# MagicaVoxel @ Ephtracy

# group
o 

# material
mtllib ZIBU_Original_Animation_Ready-5.mtl
usemtl palette

# normals
vn -1 0 0
vn 1 0 0
vn 0 0 1
vn 0 0 -1
vn 0 -1 0
vn 0 1 0

# texcoords
vt 0.970703 0.5
vt 0.974609 0.5
vt 0.982422 0.5
vt 0.986328 0.5

# verts
v -0.6 0 -0.9
v -0.6 0 -1.3
v -0.6 0.2 -0.9
v -0.6 0.2 -1.1
v -0.6 0.2 -1.3
v -0.6 0.4 -1.1
v -0.6 0.4 -1.3
v -0.6 0.7 -0.9
v -0.6 0.7 -1.3
v -0.2 0 -0.9
v -0.2 0 -1.1
v -0.2 0 -1.3
v -0.2 0.2 -0.9
v -0.2 0.2 -1.1
v -0.2 0.2 -1.3
v -0.2 0.4 -0.9
v -0.2 0.4 -1.1
v -0.2 0.7 -0.9
v -0.2 0.7 -1.3
v -0.6 0 -0.9
v -0.6 0.2 -0.9
v -0.6 0.7 -0.9
v -0.4 0 -0.9
v -0.4 0.2 -0.9
v -0.4 0.4 -0.9
v -0.2 0 -0.9
v -0.2 0.2 -0.9
v -0.2 0.4 -0.9
v -0.2 0.7 -0.9
v -0.6 0 -1.3
v -0.6 0.2 -1.3
v -0.6 0.4 -1.3
v -0.6 0.7 -1.3
v -0.4 0.2 -1.3
v -0.4 0.4 -1.3
v -0.2 0 -1.3
v -0.2 0.2 -1.3
v -0.2 0.7 -1.3
v -0.6 0 -0.9
v -0.4 0 -0.9
v -0.2 0 -0.9
v -0.4 0 -1.1
v -0.2 0 -1.1
v -0.6 0 -1.3
v -0.2 0 -1.3
v -0.6 0.7 -0.9
v -0.2 0.7 -0.9
v -0.6 0.7 -1.3
v -0.2 0.7 -1.3

# faces
f 3/1/1 2/1/1 1/1/1
f 4/1/1 2/1/1 3/1/1
f 5/1/1 2/1/1 4/1/1
f 6/3/1 4/3/1 3/3/1
f 6/4/1 5/4/1 4/4/1
f 7/4/1 5/4/1 6/4/1
f 8/3/1 6/3/1 3/3/1
f 8/3/1 7/3/1 6/3/1
f 9/3/1 7/3/1 8/3/1
f 10/2/2 11/2/2 13/2/2
f 11/1/2 12/1/2 14/1/2
f 13/2/2 11/2/2 14/2/2
f 14/1/2 12/1/2 15/1/2
f 13/4/2 14/4/2 16/4/2
f 14/3/2 15/3/2 17/3/2
f 16/4/2 14/4/2 17/4/2
f 16/3/2 17/3/2 18/3/2
f 17/3/2 15/3/2 19/3/2
f 18/3/2 17/3/2 19/3/2
f 23/1/3 21/1/3 20/1/3
f 24/3/3 22/3/3 21/3/3
f 24/1/3 21/1/3 23/1/3
f 25/3/3 22/3/3 24/3/3
f 26/2/3 24/2/3 23/2/3
f 27/4/3 25/4/3 24/4/3
f 27/2/3 24/2/3 26/2/3
f 28/3/3 22/3/3 25/3/3
f 28/4/3 25/4/3 27/4/3
f 29/3/3 22/3/3 28/3/3
f 30/1/4 31/1/4 34/1/4
f 31/4/4 32/4/4 34/4/4
f 32/3/4 33/3/4 35/3/4
f 34/4/4 32/4/4 35/4/4
f 30/1/4 34/1/4 36/1/4
f 34/3/4 35/3/4 37/3/4
f 36/1/4 34/1/4 37/1/4
f 35/3/4 33/3/4 38/3/4
f 37/3/4 35/3/4 38/3/4
f 42/1/5 40/1/5 39/1/5
f 42/2/5 41/2/5 40/2/5
f 43/2/5 41/2/5 42/2/5
f 44/1/5 42/1/5 39/1/5
f 44/1/5 43/1/5 42/1/5
f 45/1/5 43/1/5 44/1/5
f 46/3/6 47/3/6 48/3/6
f 48/3/6 47/3/6 49/3/6
