# MagicaVoxel @ Ephtracy

# group
o 

# material
mtllib ZIBU_Original_Animation_Ready-3.mtl
usemtl palette

# normals
vn -1 0 0
vn 1 0 0
vn 0 0 1
vn 0 0 -1
vn 0 -1 0
vn 0 1 0

# texcoords
vt 0.978516 0.5
vt 0.982422 0.5
vt 0.986328 0.5

# verts
v -0.8 2.5 0.1
v -0.8 2.5 -0.3
v -0.8 2.8 0.1
v -0.8 2.8 -0.1
v -0.8 3 0.1
v -0.8 3 -0.1
v -0.8 3 -0.3
v -0.6 3 0.1
v -0.6 3 -0.1
v -0.6 3 -0.3
v -0.6 3.2 0.1
v -0.6 3.2 -0.3
v -0.4 3.2 0.1
v -0.4 3.2 -0.1
v -0.4 3.2 -0.3
v -0.4 3.4 0.1
v -0.4 3.4 -0.1
v -0.4 3.4 -0.3
v -0.2 2.5 0.1
v -0.2 2.5 -0.3
v -0.2 2.8 -0.1
v -0.2 2.8 -0.3
v -0.2 3 -0.1
v -0.2 3 -0.3
v -0.2 3.2 0.1
v -0.2 3.2 -0.1
v -0.2 3.4 0.1
v -0.2 3.4 -0.1
v -0.2 3.4 -0.3
v -0.8 2.5 0.1
v -0.8 2.8 0.1
v -0.8 3 0.1
v -0.6 2.5 0.1
v -0.6 2.8 0.1
v -0.6 3 0.1
v -0.6 3.2 0.1
v -0.4 2.5 0.1
v -0.4 3 0.1
v -0.4 3.2 0.1
v -0.4 3.4 0.1
v -0.2 2.5 0.1
v -0.2 3.2 0.1
v -0.2 3.4 0.1
v -0.8 2.5 -0.3
v -0.8 3 -0.3
v -0.6 3 -0.3
v -0.6 3.2 -0.3
v -0.4 2.8 -0.3
v -0.4 3 -0.3
v -0.4 3.2 -0.3
v -0.4 3.4 -0.3
v -0.2 2.5 -0.3
v -0.2 2.8 -0.3
v -0.2 3 -0.3
v -0.2 3.4 -0.3
v -0.8 2.5 0.1
v -0.6 2.5 0.1
v -0.4 2.5 0.1
v -0.2 2.5 0.1
v -0.6 2.5 0
v -0.4 2.5 0
v -0.8 2.5 -0.3
v -0.2 2.5 -0.3
v -0.8 3 0.1
v -0.6 3 0.1
v -0.8 3 -0.1
v -0.6 3 -0.1
v -0.8 3 -0.3
v -0.6 3 -0.3
v -0.6 3.2 0.1
v -0.4 3.2 0.1
v -0.4 3.2 -0.1
v -0.6 3.2 -0.3
v -0.4 3.2 -0.3
v -0.4 3.4 0.1
v -0.2 3.4 0.1
v -0.4 3.4 -0.1
v -0.2 3.4 -0.1
v -0.4 3.4 -0.3
v -0.2 3.4 -0.3

# faces
f 3/2/1 2/2/1 1/2/1
f 4/2/1 2/2/1 3/2/1
f 5/3/1 4/3/1 3/3/1
f 6/2/1 2/2/1 4/2/1
f 6/3/1 4/3/1 5/3/1
f 7/2/1 2/2/1 6/2/1
f 11/2/1 9/2/1 8/2/1
f 11/2/1 10/2/1 9/2/1
f 12/2/1 10/2/1 11/2/1
f 16/3/1 14/3/1 13/3/1
f 17/2/1 15/2/1 14/2/1
f 17/3/1 14/3/1 16/3/1
f 18/2/1 15/2/1 17/2/1
f 19/2/2 20/2/2 21/2/2
f 21/2/2 20/2/2 22/2/2
f 19/2/2 21/2/2 23/2/2
f 21/3/2 22/3/2 23/3/2
f 23/3/2 22/3/2 24/3/2
f 19/2/2 23/2/2 25/2/2
f 23/2/2 24/2/2 25/2/2
f 25/2/2 24/2/2 26/2/2
f 25/3/2 26/3/2 27/3/2
f 26/2/2 24/2/2 28/2/2
f 27/3/2 26/3/2 28/3/2
f 28/2/2 24/2/2 29/2/2
f 33/2/3 31/2/3 30/2/3
f 34/3/3 32/3/3 31/3/3
f 34/2/3 31/2/3 33/2/3
f 35/3/3 32/3/3 34/3/3
f 37/1/3 34/1/3 33/1/3
f 37/1/3 35/1/3 34/1/3
f 38/2/3 36/2/3 35/2/3
f 38/1/3 35/1/3 37/1/3
f 39/2/3 36/2/3 38/2/3
f 41/2/3 38/2/3 37/2/3
f 41/2/3 39/2/3 38/2/3
f 42/3/3 40/3/3 39/3/3
f 42/2/3 39/2/3 41/2/3
f 43/3/3 40/3/3 42/3/3
f 44/2/4 45/2/4 46/2/4
f 44/2/4 46/2/4 48/2/4
f 46/2/4 47/2/4 48/2/4
f 48/2/4 47/2/4 49/2/4
f 49/2/4 47/2/4 50/2/4
f 44/2/4 48/2/4 52/2/4
f 48/3/4 49/3/4 53/3/4
f 52/2/4 48/2/4 53/2/4
f 50/2/4 51/2/4 54/2/4
f 53/3/4 49/3/4 54/3/4
f 49/2/4 50/2/4 54/2/4
f 54/2/4 51/2/4 55/2/4
f 60/2/5 57/2/5 56/2/5
f 60/1/5 58/1/5 57/1/5
f 61/2/5 59/2/5 58/2/5
f 61/1/5 58/1/5 60/1/5
f 62/2/5 60/2/5 56/2/5
f 62/2/5 61/2/5 60/2/5
f 63/2/5 59/2/5 61/2/5
f 63/2/5 61/2/5 62/2/5
f 64/3/6 65/3/6 66/3/6
f 66/3/6 65/3/6 67/3/6
f 66/2/6 67/2/6 68/2/6
f 68/2/6 67/2/6 69/2/6
f 70/2/6 71/2/6 72/2/6
f 70/2/6 72/2/6 73/2/6
f 73/2/6 72/2/6 74/2/6
f 75/3/6 76/3/6 77/3/6
f 77/3/6 76/3/6 78/3/6
f 77/2/6 78/2/6 79/2/6
f 79/2/6 78/2/6 80/2/6
