# MagicaVoxel @ Ephtracy

# group
o 

# material
mtllib ZIBU_Original_Animation_Ready-0.mtl
usemtl palette

# normals
vn -1 0 0
vn 1 0 0
vn 0 0 1
vn 0 0 -1
vn 0 -1 0
vn 0 1 0

# texcoords
vt 0.970703 0.5
vt 0.974609 0.5
vt 0.982422 0.5
vt 0.986328 0.5

# verts
v 0.2 0 0.5
v 0.2 0 0.1
v 0.2 0.2 0.5
v 0.2 0.2 0.1
v 0.2 0.7 0.5
v 0.2 0.7 0.1
v 0.6 0 0.5
v 0.6 0 0.3
v 0.6 0 0.1
v 0.6 0.2 0.5
v 0.6 0.2 0.3
v 0.6 0.2 0.1
v 0.6 0.4 0.5
v 0.6 0.4 0.3
v 0.6 0.7 0.5
v 0.6 0.7 0.1
v 0.2 0 0.5
v 0.2 0.2 0.5
v 0.2 0.7 0.5
v 0.4 0 0.5
v 0.4 0.2 0.5
v 0.4 0.4 0.5
v 0.6 0 0.5
v 0.6 0.2 0.5
v 0.6 0.4 0.5
v 0.6 0.7 0.5
v 0.2 0 0.1
v 0.2 0.2 0.1
v 0.2 0.7 0.1
v 0.6 0 0.1
v 0.6 0.2 0.1
v 0.6 0.7 0.1
v 0.2 0 0.5
v 0.4 0 0.5
v 0.6 0 0.5
v 0.4 0 0.3
v 0.6 0 0.3
v 0.2 0 0.1
v 0.6 0 0.1
v 0.2 0.7 0.5
v 0.6 0.7 0.5
v 0.2 0.7 0.1
v 0.6 0.7 0.1

# faces
f 3/1/1 2/1/1 1/1/1
f 4/1/1 2/1/1 3/1/1
f 5/3/1 4/3/1 3/3/1
f 6/3/1 4/3/1 5/3/1
f 7/2/2 8/2/2 10/2/2
f 8/1/2 9/1/2 11/1/2
f 10/2/2 8/2/2 11/2/2
f 11/1/2 9/1/2 12/1/2
f 10/4/2 11/4/2 13/4/2
f 11/3/2 12/3/2 14/3/2
f 13/4/2 11/4/2 14/4/2
f 13/3/2 14/3/2 15/3/2
f 14/3/2 12/3/2 16/3/2
f 15/3/2 14/3/2 16/3/2
f 20/1/3 18/1/3 17/1/3
f 21/3/3 19/3/3 18/3/3
f 21/1/3 18/1/3 20/1/3
f 22/3/3 19/3/3 21/3/3
f 23/2/3 21/2/3 20/2/3
f 24/4/3 22/4/3 21/4/3
f 24/2/3 21/2/3 23/2/3
f 25/3/3 19/3/3 22/3/3
f 25/4/3 22/4/3 24/4/3
f 26/3/3 19/3/3 25/3/3
f 27/1/4 28/1/4 30/1/4
f 28/3/4 29/3/4 31/3/4
f 30/1/4 28/1/4 31/1/4
f 31/3/4 29/3/4 32/3/4
f 36/1/5 34/1/5 33/1/5
f 36/2/5 35/2/5 34/2/5
f 37/2/5 35/2/5 36/2/5
f 38/1/5 36/1/5 33/1/5
f 38/1/5 37/1/5 36/1/5
f 39/1/5 37/1/5 38/1/5
f 40/3/6 41/3/6 42/3/6
f 42/3/6 41/3/6 43/3/6
