# MagicaVoxel @ Ephtracy

# group
o 

# material
mtllib ZIBU_Original_Animation_Ready-8.mtl
usemtl palette

# normals
vn -1 0 0
vn 1 0 0
vn 0 0 1
vn 0 0 -1
vn 0 -1 0
vn 0 1 0

# texcoords
vt 0.970703 0.5
vt 0.982422 0.5
vt 0.986328 0.5

# verts
v -0.2 1.2 -1.3
v -0.2 1.2 -1.5
v -0.2 1.4 -1.5
v -0.2 1.4 -1.7
v -0.2 1.6 -1.1
v -0.2 1.6 -1.3
v -0.2 1.8 -1.3
v -0.2 1.8 -1.5
v -0.2 1.8 -1.7
v -0.2 2 -1.1
v -0.2 2 -1.3
v -0.2 2 -1.5
v -0.2 2.2 -1.1
v -0.2 2.2 -1.3
v 0.2 1.2 -1.3
v 0.2 1.2 -1.5
v 0.2 1.4 -1.5
v 0.2 1.4 -1.7
v 0.2 1.6 -1.1
v 0.2 1.6 -1.3
v 0.2 1.8 -1.1
v 0.2 1.8 -1.3
v 0.2 1.8 -1.5
v 0.2 1.8 -1.7
v 0.2 2 -1.1
v 0.2 2 -1.3
v 0.2 2 -1.5
v 0.2 2.2 -1.1
v 0.2 2.2 -1.3
v -0.2 1.6 -1.1
v -0.2 2 -1.1
v -0.2 2.2 -1.1
v 0 1.8 -1.1
v 0 2 -1.1
v 0 2.2 -1.1
v 0.2 1.6 -1.1
v 0.2 1.8 -1.1
v 0.2 2 -1.1
v 0.2 2.2 -1.1
v -0.2 1.2 -1.3
v -0.2 1.6 -1.3
v 0.2 1.2 -1.3
v 0.2 1.6 -1.3
v -0.2 2 -1.3
v -0.2 2.2 -1.3
v 0 2 -1.3
v 0 2.2 -1.3
v 0.2 2 -1.3
v 0.2 2.2 -1.3
v -0.2 1.2 -1.5
v -0.2 1.4 -1.5
v -0.2 1.8 -1.5
v -0.2 2 -1.5
v 0.2 1.2 -1.5
v 0.2 1.4 -1.5
v 0.2 1.8 -1.5
v 0.2 2 -1.5
v -0.2 1.4 -1.7
v -0.2 1.8 -1.7
v 0.2 1.4 -1.7
v 0.2 1.8 -1.7
v -0.2 1.2 -1.3
v 0.2 1.2 -1.3
v -0.2 1.2 -1.5
v 0.2 1.2 -1.5
v -0.2 1.4 -1.5
v 0.2 1.4 -1.5
v -0.2 1.4 -1.7
v 0.2 1.4 -1.7
v -0.2 1.6 -1.1
v 0.2 1.6 -1.1
v -0.2 1.6 -1.3
v 0.2 1.6 -1.3
v -0.2 1.8 -1.5
v 0.2 1.8 -1.5
v -0.2 1.8 -1.7
v 0.2 1.8 -1.7
v -0.2 2 -1.3
v 0 2 -1.3
v 0.2 2 -1.3
v -0.2 2 -1.5
v 0.2 2 -1.5
v -0.2 2.2 -1.1
v 0 2.2 -1.1
v 0.2 2.2 -1.1
v -0.2 2.2 -1.3
v 0 2.2 -1.3
v 0.2 2.2 -1.3

# faces
f 3/2/1 2/2/1 1/2/1
f 6/2/1 3/2/1 1/2/1
f 7/2/1 3/2/1 6/2/1
f 7/2/1 6/2/1 5/2/1
f 8/1/1 4/1/1 3/1/1
f 8/2/1 3/2/1 7/2/1
f 9/1/1 4/1/1 8/1/1
f 10/2/1 7/2/1 5/2/1
f 11/1/1 8/1/1 7/1/1
f 11/2/1 7/2/1 10/2/1
f 12/1/1 8/1/1 11/1/1
f 13/3/1 11/3/1 10/3/1
f 14/3/1 11/3/1 13/3/1
f 15/2/2 16/2/2 17/2/2
f 15/2/2 17/2/2 20/2/2
f 19/2/2 20/2/2 21/2/2
f 20/2/2 17/2/2 22/2/2
f 21/2/2 20/2/2 22/2/2
f 17/1/2 18/1/2 23/1/2
f 22/2/2 17/2/2 23/2/2
f 23/1/2 18/1/2 24/1/2
f 21/3/2 22/3/2 25/3/2
f 22/1/2 23/1/2 26/1/2
f 25/3/2 22/3/2 26/3/2
f 26/1/2 23/1/2 27/1/2
f 25/2/2 26/2/2 28/2/2
f 28/2/2 26/2/2 29/2/2
f 33/2/3 31/2/3 30/2/3
f 34/3/3 32/3/3 31/3/3
f 34/2/3 31/2/3 33/2/3
f 35/3/3 32/3/3 34/3/3
f 36/2/3 33/2/3 30/2/3
f 37/3/3 34/3/3 33/3/3
f 37/2/3 33/2/3 36/2/3
f 38/2/3 35/2/3 34/2/3
f 38/3/3 34/3/3 37/3/3
f 39/2/3 35/2/3 38/2/3
f 42/2/3 41/2/3 40/2/3
f 43/2/3 41/2/3 42/2/3
f 44/3/4 45/3/4 46/3/4
f 46/3/4 45/3/4 47/3/4
f 46/2/4 47/2/4 48/2/4
f 48/2/4 47/2/4 49/2/4
f 50/2/4 51/2/4 54/2/4
f 54/2/4 51/2/4 55/2/4
f 52/1/4 53/1/4 56/1/4
f 56/1/4 53/1/4 57/1/4
f 58/1/4 59/1/4 60/1/4
f 60/1/4 59/1/4 61/1/4
f 64/2/5 63/2/5 62/2/5
f 65/2/5 63/2/5 64/2/5
f 68/1/5 67/1/5 66/1/5
f 69/1/5 67/1/5 68/1/5
f 72/2/5 71/2/5 70/2/5
f 73/2/5 71/2/5 72/2/5
f 74/1/6 75/1/6 76/1/6
f 76/1/6 75/1/6 77/1/6
f 78/1/6 79/1/6 81/1/6
f 79/1/6 80/1/6 81/1/6
f 81/1/6 80/1/6 82/1/6
f 83/3/6 84/3/6 86/3/6
f 84/2/6 85/2/6 87/2/6
f 86/3/6 84/3/6 87/3/6
f 87/2/6 85/2/6 88/2/6
