# MagicaVoxel @ Ephtracy

# group
o 

# material
mtllib ZIBU_Original_Animation_Ready-7.mtl
usemtl palette

# normals
vn -1 0 0
vn 1 0 0
vn 0 0 1
vn 0 0 -1
vn 0 -1 0
vn 0 1 0

# texcoords
vt 0.939453 0.5
vt 0.970703 0.5
vt 0.974609 0.5
vt 0.982422 0.5
vt 0.986328 0.5
vt 0.990234 0.5
vt 0.994141 0.5

# verts
v -1 1.2 0.7
v -1 1.2 0.5
v -1 1.4 0.7
v -1 1.4 0.5
v -1 1.6 0.7
v -1 1.6 0.5
v -1 1.8 0.7
v -1 1.8 0.5
v -0.8 1.2 1.1
v -0.8 1.2 0.7
v -0.8 1.2 0.5
v -0.8 1.2 -0.0999999
v -0.8 1.4 0.7
v -0.8 1.4 0.5
v -0.8 1.4 -0.0999999
v -0.8 1.4 -0.3
v -0.8 1.6 0.7
v -0.8 1.6 0.5
v -0.8 1.6 -0.3
v -0.8 1.6 -0.5
v -0.8 1.8 0.7
v -0.8 1.8 0.5
v -0.8 2 0
v -0.8 2 -0.2
v -0.8 2.2 0
v -0.8 2.2 -0.2
v -0.8 2.2 -0.4
v -0.8 2.4 0.9
v -0.8 2.4 0.7
v -0.8 2.4 -0.2
v -0.8 2.4 -0.4
v -0.8 2.6 1.1
v -0.8 2.6 0.9
v -0.8 2.6 0.7
v -0.8 2.6 -0.5
v -0.6 1.2 1.5
v -0.6 1.2 1.3
v -0.6 1.2 1.1
v -0.6 1.8 1.5
v -0.6 1.8 1.3
v -0.6 1.8 1.1
v -0.6 2 1.3
v -0.6 2 1.1
v -0.6 2.2 1.3
v -0.6 2.2 1.1
v -0.2 1.6 1.7
v -0.2 1.6 1.5
v -0.2 1.8 1.7
v -0.2 1.8 1.5
v 0.2 2 1.3
v 0.2 2 1.1
v 0.2 2.2 1.3
v 0.2 2.2 1.1
v -0.2 2 1.3
v -0.2 2 1.1
v -0.2 2.2 1.3
v -0.2 2.2 1.1
v 0.2 1.6 1.7
v 0.2 1.6 1.5
v 0.2 1.8 1.7
v 0.2 1.8 1.5
v 0.6 1.2 1.5
v 0.6 1.2 1.3
v 0.6 1.2 1.1
v 0.6 1.4 1.1
v 0.6 1.8 1.5
v 0.6 1.8 1.3
v 0.6 1.8 1.1
v 0.6 2 1.3
v 0.6 2 1.1
v 0.6 2.2 1.3
v 0.6 2.2 1.1
v 0.8 1.2 1.1
v 0.8 1.2 0.9
v 0.8 1.2 0.7
v 0.8 1.2 0.5
v 0.8 1.2 -0.0999999
v 0.8 1.4 1.1
v 0.8 1.4 0.9
v 0.8 1.4 0.7
v 0.8 1.4 0.5
v 0.8 1.4 -0.0999999
v 0.8 1.4 -0.3
v 0.8 1.6 0.7
v 0.8 1.6 0.5
v 0.8 1.6 -0.3
v 0.8 1.6 -0.5
v 0.8 1.8 1.1
v 0.8 1.8 0.9
v 0.8 1.8 0.7
v 0.8 1.8 0.5
v 0.8 1.8 -0.3
v 0.8 1.8 -0.5
v 0.8 2 1.1
v 0.8 2 0.9
v 0.8 2 0.7
v 0.8 2 -0.0999999
v 0.8 2 -0.3
v 0.8 2 -0.5
v 0.8 2.2 0.9
v 0.8 2.2 0.7
v 0.8 2.2 -0.0999999
v 0.8 2.2 -0.3
v 0.8 2.4 1.1
v 0.8 2.4 0.9
v 0.8 2.6 1.1
v 0.8 2.6 0.9
v 0.8 2.6 -0.5
v 1 1.2 0.7
v 1 1.2 0.5
v 1 1.4 0.7
v 1 1.4 0.5
v 1 1.6 0.7
v 1 1.6 0.5
v 1 1.8 0.7
v 1 1.8 0.5
v -0.2 1.6 1.7
v -0.2 1.8 1.7
v 0.2 1.6 1.7
v 0.2 1.8 1.7
v -0.6 1.2 1.5
v -0.6 1.8 1.5
v -0.4 1.6 1.5
v -0.4 1.8 1.5
v -0.2 1.6 1.5
v -0.2 1.8 1.5
v 0.2 1.4 1.5
v 0.2 1.6 1.5
v 0.2 1.8 1.5
v 0.4 1.4 1.5
v 0.4 1.6 1.5
v 0.6 1.2 1.5
v 0.6 1.8 1.5
v -0.6 2 1.3
v -0.6 2.2 1.3
v -0.2 2 1.3
v -0.2 2.2 1.3
v 0.2 2 1.3
v 0.2 2.2 1.3
v 0.6 2 1.3
v 0.6 2.2 1.3
v -0.8 1.2 1.1
v -0.8 2.6 1.1
v -0.6 1.2 1.1
v -0.6 1.8 1.1
v -0.6 2 1.1
v -0.6 2.2 1.1
v -0.6 2.4 1.1
v -0.6 2.6 1.1
v -0.4 1.8 1.1
v -0.4 1.9 1.1
v -0.4 2 1.1
v -0.4 2.2 1.1
v -0.4 2.4 1.1
v -0.4 2.6 1.1
v -0.3 1.9 1.1
v -0.3 2 1.1
v -0.2 1.8 1.1
v -0.2 2 1.1
v -0.2 2.2 1.1
v -0.2 2.4 1.1
v 0 1.8 1.1
v 0 2 1.1
v 0 2.4 1.1
v 0 2.6 1.1
v 0.2 1.8 1.1
v 0.2 2 1.1
v 0.2 2.2 1.1
v 0.2 2.4 1.1
v 0.2 2.6 1.1
v 0.4 1.8 1.1
v 0.4 1.9 1.1
v 0.4 2 1.1
v 0.4 2.2 1.1
v 0.4 2.4 1.1
v 0.5 1.9 1.1
v 0.5 2 1.1
v 0.6 1.2 1.1
v 0.6 1.4 1.1
v 0.6 1.8 1.1
v 0.6 2 1.1
v 0.6 2.2 1.1
v 0.6 2.4 1.1
v 0.6 2.6 1.1
v 0.8 1.2 1.1
v 0.8 1.4 1.1
v 0.8 1.8 1.1
v 0.8 2 1.1
v 0.8 2.4 1.1
v 0.8 2.6 1.1
v -1 1.2 0.7
v -1 1.4 0.7
v -1 1.6 0.7
v -1 1.8 0.7
v -0.8 1.2 0.7
v -0.8 1.4 0.7
v -0.8 1.6 0.7
v -0.8 1.8 0.7
v 0.8 1.2 0.7
v 0.8 1.4 0.7
v 0.8 1.6 0.7
v 0.8 1.8 0.7
v 1 1.2 0.7
v 1 1.4 0.7
v 1 1.6 0.7
v 1 1.8 0.7
v -1 1.2 0.5
v -1 1.4 0.5
v -1 1.6 0.5
v -1 1.8 0.5
v -0.8 1.2 0.5
v -0.8 1.4 0.5
v -0.8 1.6 0.5
v -0.8 1.8 0.5
v 0.8 1.2 0.5
v 0.8 1.4 0.5
v 0.8 1.6 0.5
v 0.8 1.8 0.5
v 1 1.2 0.5
v 1 1.4 0.5
v 1 1.6 0.5
v 1 1.8 0.5
v -0.8 1.2 -0.0999999
v -0.8 1.4 -0.0999999
v 0.8 1.2 -0.0999999
v 0.8 1.4 -0.0999999
v -0.8 1.4 -0.3
v -0.8 1.6 -0.3
v 0.8 1.4 -0.3
v 0.8 1.6 -0.3
v -0.8 1.6 -0.5
v -0.8 2.6 -0.5
v 0.7 1.8 -0.5
v 0.7 2 -0.5
v 0.8 1.6 -0.5
v 0.8 1.8 -0.5
v 0.8 2 -0.5
v 0.8 2.6 -0.5
v -0.6 1.2 1.5
v 0.6 1.2 1.5
v -0.6 1.2 1.3
v 0.6 1.2 1.3
v -0.8 1.2 1.1
v -0.6 1.2 1.1
v 0.6 1.2 1.1
v 0.8 1.2 1.1
v 0.6 1.2 0.9
v 0.8 1.2 0.9
v -1 1.2 0.7
v -0.8 1.2 0.7
v 0.8 1.2 0.7
v 1 1.2 0.7
v -1 1.2 0.5
v -0.8 1.2 0.5
v 0.8 1.2 0.5
v 1 1.2 0.5
v -0.8 1.2 -0.0999999
v 0.8 1.2 -0.0999999
v -0.8 1.4 -0.0999999
v 0.8 1.4 -0.0999999
v -0.8 1.4 -0.3
v 0.8 1.4 -0.3
v -0.2 1.6 1.7
v 0.2 1.6 1.7
v -0.2 1.6 1.5
v 0.2 1.6 1.5
v -1 1.6 0.7
v -0.8 1.6 0.7
v 0.8 1.6 0.7
v 1 1.6 0.7
v -1 1.6 0.5
v -0.8 1.6 0.5
v 0.8 1.6 0.5
v 1 1.6 0.5
v -0.8 1.6 -0.3
v 0.8 1.6 -0.3
v -0.8 1.6 -0.5
v 0.8 1.6 -0.5
v -0.6 2 1.3
v -0.2 2 1.3
v 0.2 2 1.3
v 0.6 2 1.3
v -0.6 2 1.1
v -0.4 2 1.1
v -0.3 2 1.1
v -0.2 2 1.1
v 0.2 2 1.1
v 0.4 2 1.1
v 0.5 2 1.1
v 0.6 2 1.1
v -1 1.4 0.7
v -0.8 1.4 0.7
v 0.8 1.4 0.7
v 1 1.4 0.7
v -1 1.4 0.5
v -0.8 1.4 0.5
v 0.8 1.4 0.5
v 1 1.4 0.5
v -0.2 1.8 1.7
v 0.2 1.8 1.7
v -0.6 1.8 1.5
v -0.4 1.8 1.5
v -0.2 1.8 1.5
v 0.2 1.8 1.5
v 0.6 1.8 1.5
v -0.6 1.8 1.3
v -0.4 1.8 1.3
v -0.2 1.8 1.3
v 0.2 1.8 1.3
v 0.6 1.8 1.3
v -0.6 1.8 1.1
v -0.4 1.8 1.1
v -0.2 1.8 1.1
v 0 1.8 1.1
v 0.2 1.8 1.1
v 0.4 1.8 1.1
v 0.6 1.8 1.1
v -1 1.8 0.7
v -0.8 1.8 0.7
v 0.8 1.8 0.7
v 1 1.8 0.7
v -1 1.8 0.5
v -0.8 1.8 0.5
v 0.8 1.8 0.5
v 1 1.8 0.5
v -0.6 2.2 1.3
v -0.2 2.2 1.3
v 0.2 2.2 1.3
v 0.6 2.2 1.3
v -0.6 2.2 1.1
v -0.4 2.2 1.1
v -0.2 2.2 1.1
v 0.2 2.2 1.1
v 0.4 2.2 1.1
v 0.6 2.2 1.1
v -0.8 2.6 1.1
v -0.6 2.6 1.1
v -0.4 2.6 1.1
v 0 2.6 1.1
v 0.2 2.6 1.1
v 0.6 2.6 1.1
v 0.8 2.6 1.1
v -0.8 2.6 0.9
v -0.6 2.6 0.9
v -0.4 2.6 0.9
v 0 2.6 0.9
v 0.2 2.6 0.9
v 0.6 2.6 0.9
v 0.8 2.6 0.9
v -0.8 2.6 0.7
v -0.6 2.6 0.7
v -0.8 2.6 -0.5
v 0.8 2.6 -0.5

# faces
f 3/5/1 2/5/1 1/5/1
f 4/5/1 2/5/1 3/5/1
f 7/5/1 6/5/1 5/5/1
f 8/5/1 6/5/1 7/5/1
f 13/4/1 10/4/1 9/4/1
f 14/4/1 12/4/1 11/4/1
f 15/4/1 12/4/1 14/4/1
f 17/4/1 13/4/1 9/4/1
f 17/4/1 16/4/1 15/4/1
f 17/4/1 15/4/1 14/4/1
f 17/4/1 14/4/1 13/4/1
f 18/4/1 16/4/1 17/4/1
f 19/4/1 16/4/1 18/4/1
f 21/4/1 17/4/1 9/4/1
f 22/4/1 20/4/1 19/4/1
f 22/4/1 19/4/1 18/4/1
f 23/4/1 20/4/1 22/4/1
f 23/4/1 22/4/1 21/4/1
f 24/4/1 20/4/1 23/4/1
f 25/4/1 23/4/1 21/4/1
f 25/5/1 24/5/1 23/5/1
f 26/4/1 20/4/1 24/4/1
f 26/5/1 24/5/1 25/5/1
f 27/4/1 20/4/1 26/4/1
f 28/4/1 21/4/1 9/4/1
f 28/4/1 25/4/1 21/4/1
f 28/4/1 26/4/1 25/4/1
f 29/4/1 26/4/1 28/4/1
f 30/5/1 27/5/1 26/5/1
f 30/4/1 26/4/1 29/4/1
f 31/4/1 20/4/1 27/4/1
f 31/5/1 27/5/1 30/5/1
f 32/4/1 28/4/1 9/4/1
f 33/5/1 29/5/1 28/5/1
f 33/4/1 28/4/1 32/4/1
f 34/4/1 30/4/1 29/4/1
f 34/5/1 29/5/1 33/5/1
f 34/4/1 31/4/1 30/4/1
f 35/4/1 20/4/1 31/4/1
f 35/4/1 31/4/1 34/4/1
f 39/2/1 37/2/1 36/2/1
f 40/4/1 38/4/1 37/4/1
f 40/2/1 37/2/1 39/2/1
f 41/4/1 38/4/1 40/4/1
f 44/4/1 43/4/1 42/4/1
f 45/4/1 43/4/1 44/4/1
f 48/6/1 47/6/1 46/6/1
f 49/6/1 47/6/1 48/6/1
f 52/4/1 51/4/1 50/4/1
f 53/4/1 51/4/1 52/4/1
f 54/4/2 55/4/2 56/4/2
f 56/4/2 55/4/2 57/4/2
f 58/6/2 59/6/2 60/6/2
f 60/6/2 59/6/2 61/6/2
f 63/4/2 64/4/2 65/4/2
f 62/2/2 63/2/2 66/2/2
f 63/4/2 65/4/2 67/4/2
f 66/2/2 63/2/2 67/2/2
f 67/4/2 65/4/2 68/4/2
f 69/4/2 70/4/2 71/4/2
f 71/4/2 70/4/2 72/4/2
f 73/5/2 74/5/2 78/5/2
f 74/4/2 75/4/2 79/4/2
f 78/5/2 74/5/2 79/5/2
f 79/4/2 75/4/2 80/4/2
f 76/4/2 77/4/2 81/4/2
f 81/4/2 77/4/2 82/4/2
f 79/4/2 80/4/2 84/4/2
f 82/4/2 83/4/2 84/4/2
f 81/4/2 82/4/2 84/4/2
f 80/4/2 81/4/2 84/4/2
f 78/4/2 79/4/2 84/4/2
f 84/4/2 83/4/2 85/4/2
f 85/4/2 83/4/2 86/4/2
f 78/4/2 84/4/2 88/4/2
f 88/4/2 84/4/2 89/4/2
f 89/4/2 84/4/2 90/4/2
f 86/4/2 87/4/2 91/4/2
f 85/4/2 86/4/2 91/4/2
f 91/4/2 87/4/2 92/4/2
f 92/4/2 87/4/2 93/4/2
f 88/5/2 89/5/2 94/5/2
f 89/4/2 90/4/2 95/4/2
f 94/5/2 89/5/2 95/5/2
f 90/4/2 91/4/2 95/4/2
f 91/4/2 92/4/2 95/4/2
f 95/4/2 92/4/2 96/4/2
f 96/4/2 92/4/2 97/4/2
f 92/5/2 93/5/2 98/5/2
f 97/4/2 92/4/2 98/4/2
f 98/5/2 93/5/2 99/5/2
f 94/4/2 95/4/2 100/4/2
f 95/5/2 96/5/2 100/5/2
f 96/4/2 97/4/2 101/4/2
f 100/5/2 96/5/2 101/5/2
f 97/5/2 98/5/2 102/5/2
f 101/4/2 97/4/2 102/4/2
f 98/4/2 99/4/2 103/4/2
f 102/5/2 98/5/2 103/5/2
f 94/4/2 100/4/2 104/4/2
f 101/4/2 102/4/2 104/4/2
f 102/4/2 103/4/2 104/4/2
f 100/4/2 101/4/2 104/4/2
f 104/4/2 103/4/2 105/4/2
f 104/5/2 105/5/2 106/5/2
f 105/4/2 103/4/2 107/4/2
f 106/5/2 105/5/2 107/5/2
f 103/4/2 99/4/2 108/4/2
f 107/4/2 103/4/2 108/4/2
f 109/5/2 110/5/2 111/5/2
f 111/5/2 110/5/2 112/5/2
f 113/5/2 114/5/2 115/5/2
f 115/5/2 114/5/2 116/5/2
f 119/6/3 118/6/3 117/6/3
f 120/6/3 118/6/3 119/6/3
f 123/2/3 122/2/3 121/2/3
f 124/2/3 122/2/3 123/2/3
f 125/2/3 123/2/3 121/2/3
f 125/3/3 124/3/3 123/3/3
f 126/3/3 124/3/3 125/3/3
f 127/2/3 125/2/3 121/2/3
f 128/2/3 125/2/3 127/2/3
f 130/2/3 127/2/3 121/2/3
f 130/3/3 128/3/3 127/3/3
f 131/2/3 129/2/3 128/2/3
f 131/3/3 128/3/3 130/3/3
f 132/2/3 130/2/3 121/2/3
f 132/2/3 131/2/3 130/2/3
f 133/2/3 129/2/3 131/2/3
f 133/2/3 131/2/3 132/2/3
f 136/4/3 135/4/3 134/4/3
f 137/4/3 135/4/3 136/4/3
f 140/4/3 139/4/3 138/4/3
f 141/4/3 139/4/3 140/4/3
f 144/4/3 143/4/3 142/4/3
f 145/4/3 143/4/3 144/4/3
f 146/4/3 143/4/3 145/4/3
f 147/4/3 143/4/3 146/4/3
f 148/4/3 143/4/3 147/4/3
f 149/4/3 143/4/3 148/4/3
f 150/1/3 146/1/3 145/1/3
f 151/1/3 146/1/3 150/1/3
f 152/1/3 146/1/3 151/1/3
f 153/2/3 148/2/3 147/2/3
f 154/5/3 149/5/3 148/5/3
f 154/2/3 148/2/3 153/2/3
f 155/5/3 149/5/3 154/5/3
f 156/7/3 152/7/3 151/7/3
f 156/6/3 151/6/3 150/6/3
f 157/7/3 152/7/3 156/7/3
f 158/6/3 156/6/3 150/6/3
f 158/6/3 157/6/3 156/6/3
f 159/6/3 157/6/3 158/6/3
f 160/3/3 154/3/3 153/3/3
f 161/4/3 155/4/3 154/4/3
f 161/3/3 154/3/3 160/3/3
f 162/2/3 160/2/3 159/2/3
f 162/2/3 159/2/3 158/2/3
f 163/2/3 160/2/3 162/2/3
f 164/4/3 155/4/3 161/4/3
f 164/4/3 161/4/3 160/4/3
f 165/4/3 155/4/3 164/4/3
f 166/3/3 163/3/3 162/3/3
f 167/2/3 160/2/3 163/2/3
f 167/3/3 163/3/3 166/3/3
f 168/4/3 164/4/3 160/4/3
f 168/2/3 160/2/3 167/2/3
f 169/5/3 165/5/3 164/5/3
f 169/4/3 164/4/3 168/4/3
f 170/5/3 165/5/3 169/5/3
f 171/1/3 167/1/3 166/1/3
f 172/1/3 167/1/3 171/1/3
f 173/1/3 167/1/3 172/1/3
f 174/2/3 169/2/3 168/2/3
f 175/4/3 170/4/3 169/4/3
f 175/2/3 169/2/3 174/2/3
f 176/7/3 173/7/3 172/7/3
f 176/6/3 172/6/3 171/6/3
f 177/7/3 173/7/3 176/7/3
f 180/6/3 176/6/3 171/6/3
f 180/6/3 177/6/3 176/6/3
f 181/6/3 177/6/3 180/6/3
f 182/3/3 175/3/3 174/3/3
f 183/4/3 170/4/3 175/4/3
f 183/3/3 175/3/3 182/3/3
f 184/4/3 170/4/3 183/4/3
f 185/5/3 179/5/3 178/5/3
f 186/4/3 180/4/3 179/4/3
f 186/5/3 179/5/3 185/5/3
f 187/5/3 181/5/3 180/5/3
f 187/4/3 180/4/3 186/4/3
f 188/4/3 182/4/3 181/4/3
f 188/5/3 181/5/3 187/5/3
f 188/4/3 183/4/3 182/4/3
f 189/5/3 184/5/3 183/5/3
f 189/4/3 183/4/3 188/4/3
f 190/5/3 184/5/3 189/5/3
f 195/5/3 192/5/3 191/5/3
f 196/5/3 192/5/3 195/5/3
f 197/5/3 194/5/3 193/5/3
f 198/5/3 194/5/3 197/5/3
f 203/5/3 200/5/3 199/5/3
f 204/5/3 200/5/3 203/5/3
f 205/5/3 202/5/3 201/5/3
f 206/5/3 202/5/3 205/5/3
f 207/5/4 208/5/4 211/5/4
f 211/5/4 208/5/4 212/5/4
f 209/5/4 210/5/4 213/5/4
f 213/5/4 210/5/4 214/5/4
f 215/5/4 216/5/4 219/5/4
f 219/5/4 216/5/4 220/5/4
f 217/5/4 218/5/4 221/5/4
f 221/5/4 218/5/4 222/5/4
f 223/4/4 224/4/4 225/4/4
f 225/4/4 224/4/4 226/4/4
f 227/4/4 228/4/4 229/4/4
f 229/4/4 228/4/4 230/4/4
f 231/4/4 232/4/4 233/4/4
f 233/4/4 232/4/4 234/4/4
f 231/4/4 233/4/4 235/4/4
f 233/5/4 234/5/4 236/5/4
f 235/4/4 233/4/4 236/4/4
f 234/4/4 232/4/4 237/4/4
f 236/5/4 234/5/4 237/5/4
f 237/4/4 232/4/4 238/4/4
f 241/2/5 240/2/5 239/2/5
f 242/2/5 240/2/5 241/2/5
f 244/4/5 242/4/5 241/4/5
f 245/4/5 242/4/5 244/4/5
f 247/4/5 245/4/5 244/4/5
f 247/5/5 246/5/5 245/5/5
f 247/4/5 244/4/5 243/4/5
f 248/5/5 246/5/5 247/5/5
f 250/4/5 247/4/5 243/4/5
f 250/4/5 248/4/5 247/4/5
f 251/4/5 248/4/5 250/4/5
f 253/5/5 250/5/5 249/5/5
f 254/4/5 251/4/5 250/4/5
f 254/5/5 250/5/5 253/5/5
f 255/5/5 252/5/5 251/5/5
f 255/4/5 251/4/5 254/4/5
f 256/5/5 252/5/5 255/5/5
f 257/4/5 255/4/5 254/4/5
f 258/4/5 255/4/5 257/4/5
f 261/4/5 260/4/5 259/4/5
f 262/4/5 260/4/5 261/4/5
f 265/6/5 264/6/5 263/6/5
f 266/6/5 264/6/5 265/6/5
f 271/5/5 268/5/5 267/5/5
f 272/5/5 268/5/5 271/5/5
f 273/5/5 270/5/5 269/5/5
f 274/5/5 270/5/5 273/5/5
f 277/4/5 276/4/5 275/4/5
f 278/4/5 276/4/5 277/4/5
f 283/4/5 280/4/5 279/4/5
f 284/4/5 280/4/5 283/4/5
f 285/4/5 280/4/5 284/4/5
f 286/4/5 280/4/5 285/4/5
f 287/4/5 282/4/5 281/4/5
f 288/4/5 282/4/5 287/4/5
f 289/4/5 282/4/5 288/4/5
f 290/4/5 282/4/5 289/4/5
f 291/5/6 292/5/6 295/5/6
f 295/5/6 292/5/6 296/5/6
f 293/5/6 294/5/6 297/5/6
f 297/5/6 294/5/6 298/5/6
f 299/6/6 300/6/6 303/6/6
f 303/6/6 300/6/6 304/6/6
f 301/2/6 302/2/6 306/2/6
f 302/3/6 303/3/6 307/3/6
f 306/2/6 302/2/6 307/2/6
f 303/4/6 304/4/6 308/4/6
f 307/3/6 303/3/6 308/3/6
f 304/2/6 305/2/6 309/2/6
f 308/4/6 304/4/6 309/4/6
f 309/2/6 305/2/6 310/2/6
f 307/4/6 308/4/6 311/4/6
f 306/4/6 307/4/6 311/4/6
f 309/4/6 310/4/6 311/4/6
f 308/4/6 309/4/6 311/4/6
f 311/4/6 310/4/6 312/4/6
f 312/4/6 310/4/6 313/4/6
f 313/4/6 310/4/6 314/4/6
f 314/4/6 310/4/6 315/4/6
f 315/4/6 310/4/6 316/4/6
f 316/4/6 310/4/6 317/4/6
f 318/5/6 319/5/6 322/5/6
f 322/5/6 319/5/6 323/5/6
f 320/5/6 321/5/6 324/5/6
f 324/5/6 321/5/6 325/5/6
f 326/4/6 327/4/6 330/4/6
f 330/4/6 327/4/6 331/4/6
f 331/4/6 327/4/6 332/4/6
f 328/4/6 329/4/6 333/4/6
f 333/4/6 329/4/6 334/4/6
f 334/4/6 329/4/6 335/4/6
f 336/4/6 337/4/6 343/4/6
f 337/5/6 338/5/6 344/5/6
f 343/4/6 337/4/6 344/4/6
f 338/4/6 339/4/6 345/4/6
f 344/5/6 338/5/6 345/5/6
f 339/5/6 340/5/6 346/5/6
f 345/4/6 339/4/6 346/4/6
f 340/4/6 341/4/6 347/4/6
f 346/5/6 340/5/6 347/5/6
f 341/5/6 342/5/6 348/5/6
f 347/4/6 341/4/6 348/4/6
f 348/5/6 342/5/6 349/5/6
f 343/5/6 344/5/6 350/5/6
f 346/4/6 347/4/6 351/4/6
f 350/5/6 344/5/6 351/5/6
f 344/4/6 345/4/6 351/4/6
f 348/4/6 349/4/6 351/4/6
f 347/4/6 348/4/6 351/4/6
f 345/4/6 346/4/6 351/4/6
f 350/4/6 351/4/6 352/4/6
f 351/4/6 349/4/6 353/4/6
f 352/4/6 351/4/6 353/4/6
